<mxfile host="app.diagrams.net" modified="2021-02-28T10:01:57.942Z" agent="5.0 (Macintosh; Intel Mac OS X 11_2_1) AppleWebKit/537.36 (KHTML, like Gecko) Chrome/88.0.4324.192 Safari/537.36" etag="6HVxatZHCkbQPnhGtTRe" version="14.4.3" type="github">
  <diagram id="jUTdBB4SMmuSHE2jb5sB" name="Page-1">
    <mxGraphModel dx="-118" dy="1002" grid="1" gridSize="10" guides="1" tooltips="1" connect="1" arrows="1" fold="1" page="1" pageScale="1" pageWidth="827" pageHeight="1169" math="0" shadow="0">
      <root>
        <mxCell id="0" />
        <mxCell id="1" parent="0" />
        <mxCell id="5zgLWV9aw60n4V1XCEfO-3" value="" style="rounded=0;whiteSpace=wrap;html=1;" vertex="1" parent="1">
          <mxGeometry x="1000" y="640" width="360" height="280" as="geometry" />
        </mxCell>
        <mxCell id="5zgLWV9aw60n4V1XCEfO-4" value="&lt;span style=&quot;font-size: 14px&quot;&gt;数据流部分&lt;/span&gt;" style="rounded=0;whiteSpace=wrap;html=1;horizontal=1;verticalAlign=top;align=center;fillColor=#f5f5f5;strokeColor=#666666;fontColor=#333333;" vertex="1" parent="1">
          <mxGeometry x="1010" y="650" width="120" height="90" as="geometry" />
        </mxCell>
        <mxCell id="mu9oWJc7VIRQOR37hwqF-1" value="&lt;font style=&quot;font-size: 14px&quot;&gt;sync word&lt;br&gt;(12)&lt;br&gt;&lt;/font&gt;" style="rounded=0;whiteSpace=wrap;html=1;fillColor=#f8cecc;" parent="1" vertex="1">
          <mxGeometry x="880" y="80" width="140" height="60" as="geometry" />
        </mxCell>
        <mxCell id="mu9oWJc7VIRQOR37hwqF-2" value="&lt;font style=&quot;font-size: 14px&quot;&gt;ID&lt;br&gt;(1)&lt;br&gt;&lt;/font&gt;" style="rounded=0;whiteSpace=wrap;html=1;fillColor=#f8cecc;" parent="1" vertex="1">
          <mxGeometry x="1020" y="80" width="50" height="60" as="geometry" />
        </mxCell>
        <mxCell id="mu9oWJc7VIRQOR37hwqF-18" value="&lt;font style=&quot;font-size: 14px&quot;&gt;ADTS fixed header(28bit)&lt;/font&gt;" style="text;html=1;align=center;verticalAlign=middle;resizable=0;points=[];autosize=1;" parent="1" vertex="1">
          <mxGeometry x="880" y="40" width="170" height="20" as="geometry" />
        </mxCell>
        <mxCell id="mu9oWJc7VIRQOR37hwqF-28" value="&lt;font style=&quot;font-size: 14px&quot;&gt;layer&lt;br&gt;(2)&lt;br&gt;&lt;/font&gt;" style="rounded=0;whiteSpace=wrap;html=1;fillColor=#f8cecc;" parent="1" vertex="1">
          <mxGeometry x="1070" y="80" width="60" height="60" as="geometry" />
        </mxCell>
        <mxCell id="mu9oWJc7VIRQOR37hwqF-29" value="&lt;font style=&quot;font-size: 14px&quot;&gt;protection&lt;br&gt;absent&lt;br&gt;(1)&lt;br&gt;&lt;/font&gt;" style="rounded=0;whiteSpace=wrap;html=1;fillColor=#f8cecc;" parent="1" vertex="1">
          <mxGeometry x="1130" y="80" width="80" height="60" as="geometry" />
        </mxCell>
        <mxCell id="mu9oWJc7VIRQOR37hwqF-30" value="&lt;font style=&quot;font-size: 14px&quot;&gt;profile&lt;br&gt;(2)&lt;br&gt;&lt;/font&gt;" style="rounded=0;whiteSpace=wrap;html=1;fillColor=#f8cecc;" parent="1" vertex="1">
          <mxGeometry x="1210" y="80" width="60" height="60" as="geometry" />
        </mxCell>
        <mxCell id="mu9oWJc7VIRQOR37hwqF-31" value="&lt;font style=&quot;font-size: 14px&quot;&gt;sampling frequency&lt;br&gt;index&lt;br&gt;(4)&lt;br&gt;&lt;/font&gt;" style="rounded=0;whiteSpace=wrap;html=1;fillColor=#f8cecc;" parent="1" vertex="1">
          <mxGeometry x="1270" y="80" width="90" height="60" as="geometry" />
        </mxCell>
        <mxCell id="mu9oWJc7VIRQOR37hwqF-32" value="&lt;font style=&quot;font-size: 14px&quot;&gt;private bit&lt;br&gt;(1)&lt;br&gt;&lt;/font&gt;" style="rounded=0;whiteSpace=wrap;html=1;fillColor=#f8cecc;" parent="1" vertex="1">
          <mxGeometry x="1360" y="80" width="70" height="60" as="geometry" />
        </mxCell>
        <mxCell id="mu9oWJc7VIRQOR37hwqF-33" value="&lt;font style=&quot;font-size: 14px&quot;&gt;channel&lt;br&gt;configuration&lt;br&gt;(3)&lt;br&gt;&lt;/font&gt;" style="rounded=0;whiteSpace=wrap;html=1;fillColor=#f8cecc;" parent="1" vertex="1">
          <mxGeometry x="1430" y="80" width="90" height="60" as="geometry" />
        </mxCell>
        <mxCell id="mu9oWJc7VIRQOR37hwqF-34" value="&lt;font style=&quot;font-size: 14px&quot;&gt;original&lt;br&gt;copy&lt;br&gt;(1)&lt;br&gt;&lt;/font&gt;" style="rounded=0;whiteSpace=wrap;html=1;fillColor=#f8cecc;" parent="1" vertex="1">
          <mxGeometry x="1520" y="80" width="70" height="60" as="geometry" />
        </mxCell>
        <mxCell id="mu9oWJc7VIRQOR37hwqF-35" value="&lt;font style=&quot;font-size: 14px&quot;&gt;home&lt;br&gt;(1)&lt;br&gt;&lt;/font&gt;" style="rounded=0;whiteSpace=wrap;html=1;fillColor=#f8cecc;" parent="1" vertex="1">
          <mxGeometry x="1590" y="80" width="60" height="60" as="geometry" />
        </mxCell>
        <mxCell id="mu9oWJc7VIRQOR37hwqF-36" value="&lt;font style=&quot;font-size: 14px&quot;&gt;copyright&lt;br&gt;identification bit&lt;br&gt;(1)&lt;br&gt;&lt;/font&gt;" style="rounded=0;whiteSpace=wrap;html=1;fillColor=#f8cecc;" parent="1" vertex="1">
          <mxGeometry x="880" y="260" width="110" height="60" as="geometry" />
        </mxCell>
        <mxCell id="mu9oWJc7VIRQOR37hwqF-37" value="&lt;font style=&quot;font-size: 14px&quot;&gt;copyright&lt;br&gt;identification start&lt;br&gt;(1)&lt;br&gt;&lt;/font&gt;" style="rounded=0;whiteSpace=wrap;html=1;fillColor=#f8cecc;" parent="1" vertex="1">
          <mxGeometry x="990" y="260" width="120" height="60" as="geometry" />
        </mxCell>
        <mxCell id="mu9oWJc7VIRQOR37hwqF-38" value="&lt;font style=&quot;font-size: 14px&quot;&gt;ADTS variable header(28bit)&lt;/font&gt;" style="text;html=1;align=center;verticalAlign=middle;resizable=0;points=[];autosize=1;" parent="1" vertex="1">
          <mxGeometry x="880" y="220" width="190" height="20" as="geometry" />
        </mxCell>
        <mxCell id="mu9oWJc7VIRQOR37hwqF-39" value="&lt;font style=&quot;font-size: 14px&quot;&gt;aac frame&lt;br&gt;length&lt;br&gt;(13)&lt;br&gt;&lt;/font&gt;" style="rounded=0;whiteSpace=wrap;html=1;fillColor=#f8cecc;" parent="1" vertex="1">
          <mxGeometry x="1110" y="260" width="110" height="60" as="geometry" />
        </mxCell>
        <mxCell id="mu9oWJc7VIRQOR37hwqF-40" value="&lt;font style=&quot;font-size: 14px&quot;&gt;adts buffer&lt;br&gt;fullness&lt;br&gt;(11)&lt;br&gt;&lt;/font&gt;" style="rounded=0;whiteSpace=wrap;html=1;fillColor=#f8cecc;" parent="1" vertex="1">
          <mxGeometry x="1220" y="260" width="110" height="60" as="geometry" />
        </mxCell>
        <mxCell id="mu9oWJc7VIRQOR37hwqF-41" value="&lt;font style=&quot;font-size: 14px&quot;&gt;number of raw data blocks in frame&lt;br&gt;(2)&lt;br&gt;&lt;/font&gt;" style="rounded=0;whiteSpace=wrap;html=1;fillColor=#f8cecc;" parent="1" vertex="1">
          <mxGeometry x="1330" y="260" width="130" height="60" as="geometry" />
        </mxCell>
        <mxCell id="5zgLWV9aw60n4V1XCEfO-1" value="RTSP、RTP和RTCP" style="text;html=1;strokeColor=none;fillColor=none;align=center;verticalAlign=middle;whiteSpace=wrap;rounded=0;" vertex="1" parent="1">
          <mxGeometry x="880" y="560" width="140" height="20" as="geometry" />
        </mxCell>
        <mxCell id="5zgLWV9aw60n4V1XCEfO-14" style="edgeStyle=orthogonalEdgeStyle;rounded=0;orthogonalLoop=1;jettySize=auto;html=1;exitX=0.5;exitY=1;exitDx=0;exitDy=0;entryX=0.25;entryY=0;entryDx=0;entryDy=0;startArrow=classic;startFill=1;" edge="1" parent="1" source="5zgLWV9aw60n4V1XCEfO-5" target="5zgLWV9aw60n4V1XCEfO-9">
          <mxGeometry relative="1" as="geometry" />
        </mxCell>
        <mxCell id="5zgLWV9aw60n4V1XCEfO-5" value="&lt;font style=&quot;font-size: 14px&quot;&gt;RTP&lt;/font&gt;" style="rounded=0;whiteSpace=wrap;html=1;fillColor=#dae8fc;strokeColor=#6c8ebf;" vertex="1" parent="1">
          <mxGeometry x="1030" y="680" width="80" height="40" as="geometry" />
        </mxCell>
        <mxCell id="5zgLWV9aw60n4V1XCEfO-6" value="&lt;span style=&quot;font-size: 14px&quot;&gt;控制部分&lt;/span&gt;" style="rounded=0;whiteSpace=wrap;html=1;horizontal=1;verticalAlign=top;align=center;fillColor=#f5f5f5;strokeColor=#666666;fontColor=#333333;" vertex="1" parent="1">
          <mxGeometry x="1160" y="650" width="190" height="90" as="geometry" />
        </mxCell>
        <mxCell id="5zgLWV9aw60n4V1XCEfO-15" style="edgeStyle=orthogonalEdgeStyle;rounded=0;orthogonalLoop=1;jettySize=auto;html=1;exitX=0.5;exitY=1;exitDx=0;exitDy=0;entryX=0.75;entryY=0;entryDx=0;entryDy=0;startArrow=classic;startFill=1;" edge="1" parent="1" source="5zgLWV9aw60n4V1XCEfO-7" target="5zgLWV9aw60n4V1XCEfO-9">
          <mxGeometry relative="1" as="geometry" />
        </mxCell>
        <mxCell id="5zgLWV9aw60n4V1XCEfO-7" value="&lt;font style=&quot;font-size: 14px&quot;&gt;RTCP&lt;/font&gt;&lt;span style=&quot;color: rgba(0 , 0 , 0 , 0) ; font-family: monospace ; font-size: 0px&quot;&gt;%3CmxGraphModel%3E%3Croot%3E%3CmxCell%20id%3D%220%22%2F%3E%3CmxCell%20id%3D%221%22%20parent%3D%220%22%2F%3E%3CmxCell%20id%3D%222%22%20value%3D%22%26lt%3Bspan%20style%3D%26quot%3Bfont-size%3A%2014px%26quot%3B%26gt%3B%E6%95%B0%E6%8D%AE%E6%B5%81%E9%83%A8%E5%88%86%26lt%3B%2Fspan%26gt%3B%22%20style%3D%22rounded%3D0%3BwhiteSpace%3Dwrap%3Bhtml%3D1%3Bhorizontal%3D1%3BverticalAlign%3Dtop%3Balign%3Dcenter%3B%22%20vertex%3D%221%22%20parent%3D%221%22%3E%3CmxGeometry%20x%3D%221010%22%20y%3D%22650%22%20width%3D%22120%22%20height%3D%2280%22%20as%3D%22geometry%22%2F%3E%3C%2FmxCell%3E%3CmxCell%20id%3D%223%22%20value%3D%22%26lt%3Bfont%20style%3D%26quot%3Bfont-size%3A%2014px%26quot%3B%26gt%3BRTP%26lt%3B%2Ffont%26gt%3B%22%20style%3D%22rounded%3D0%3BwhiteSpace%3Dwrap%3Bhtml%3D1%3B%22%20vertex%3D%221%22%20parent%3D%221%22%3E%3CmxGeometry%20x%3D%221020%22%20y%3D%22680%22%20width%3D%22100%22%20height%3D%2240%22%20as%3D%22geometry%22%2F%3E%3C%2FmxCell%3E%3C%2Froot%3E%3C%2FmxGraphModel%3E&lt;/span&gt;" style="rounded=0;whiteSpace=wrap;html=1;fillColor=#dae8fc;strokeColor=#6c8ebf;" vertex="1" parent="1">
          <mxGeometry x="1170" y="680" width="80" height="40" as="geometry" />
        </mxCell>
        <mxCell id="5zgLWV9aw60n4V1XCEfO-16" style="edgeStyle=orthogonalEdgeStyle;rounded=0;orthogonalLoop=1;jettySize=auto;html=1;exitX=0.5;exitY=1;exitDx=0;exitDy=0;entryX=0.5;entryY=0;entryDx=0;entryDy=0;startArrow=classic;startFill=1;" edge="1" parent="1" source="5zgLWV9aw60n4V1XCEfO-8" target="5zgLWV9aw60n4V1XCEfO-10">
          <mxGeometry relative="1" as="geometry" />
        </mxCell>
        <mxCell id="5zgLWV9aw60n4V1XCEfO-8" value="&lt;font style=&quot;font-size: 14px&quot;&gt;RTSP&lt;/font&gt;" style="rounded=0;whiteSpace=wrap;html=1;fillColor=#dae8fc;strokeColor=#6c8ebf;" vertex="1" parent="1">
          <mxGeometry x="1260" y="680" width="80" height="40" as="geometry" />
        </mxCell>
        <mxCell id="5zgLWV9aw60n4V1XCEfO-17" style="edgeStyle=orthogonalEdgeStyle;rounded=0;orthogonalLoop=1;jettySize=auto;html=1;exitX=0.5;exitY=1;exitDx=0;exitDy=0;entryX=0.25;entryY=0;entryDx=0;entryDy=0;startArrow=classic;startFill=1;" edge="1" parent="1" source="5zgLWV9aw60n4V1XCEfO-9" target="5zgLWV9aw60n4V1XCEfO-11">
          <mxGeometry relative="1" as="geometry" />
        </mxCell>
        <mxCell id="5zgLWV9aw60n4V1XCEfO-9" value="&lt;span style=&quot;font-size: 14px&quot;&gt;UDP&lt;/span&gt;" style="rounded=0;whiteSpace=wrap;html=1;fillColor=#fff2cc;strokeColor=#d6b656;" vertex="1" parent="1">
          <mxGeometry x="1110" y="780" width="70" height="40" as="geometry" />
        </mxCell>
        <mxCell id="5zgLWV9aw60n4V1XCEfO-18" style="edgeStyle=orthogonalEdgeStyle;rounded=0;orthogonalLoop=1;jettySize=auto;html=1;entryX=0.75;entryY=0;entryDx=0;entryDy=0;startArrow=classic;startFill=1;" edge="1" parent="1" source="5zgLWV9aw60n4V1XCEfO-10" target="5zgLWV9aw60n4V1XCEfO-11">
          <mxGeometry relative="1" as="geometry" />
        </mxCell>
        <mxCell id="5zgLWV9aw60n4V1XCEfO-10" value="&lt;span style=&quot;font-size: 14px&quot;&gt;TCP&lt;br&gt;&lt;/span&gt;" style="rounded=0;whiteSpace=wrap;html=1;fillColor=#fff2cc;strokeColor=#d6b656;" vertex="1" parent="1">
          <mxGeometry x="1240" y="780" width="70" height="40" as="geometry" />
        </mxCell>
        <mxCell id="5zgLWV9aw60n4V1XCEfO-19" style="edgeStyle=orthogonalEdgeStyle;rounded=0;orthogonalLoop=1;jettySize=auto;html=1;exitX=0.5;exitY=1;exitDx=0;exitDy=0;startArrow=classic;startFill=1;" edge="1" parent="1" source="5zgLWV9aw60n4V1XCEfO-11" target="5zgLWV9aw60n4V1XCEfO-12">
          <mxGeometry relative="1" as="geometry" />
        </mxCell>
        <mxCell id="5zgLWV9aw60n4V1XCEfO-11" value="&lt;span style=&quot;font-size: 14px&quot;&gt;IP&lt;/span&gt;" style="rounded=0;whiteSpace=wrap;html=1;fillColor=#e1d5e7;strokeColor=#9673a6;" vertex="1" parent="1">
          <mxGeometry x="1175" y="860" width="70" height="40" as="geometry" />
        </mxCell>
        <mxCell id="5zgLWV9aw60n4V1XCEfO-12" value="&lt;font style=&quot;font-size: 14px&quot;&gt;Internet&lt;/font&gt;" style="ellipse;shape=cloud;whiteSpace=wrap;html=1;align=center;fillColor=#ffe6cc;strokeColor=#d79b00;" vertex="1" parent="1">
          <mxGeometry x="1150" y="940" width="120" height="80" as="geometry" />
        </mxCell>
        <mxCell id="5zgLWV9aw60n4V1XCEfO-25" style="edgeStyle=orthogonalEdgeStyle;rounded=0;orthogonalLoop=1;jettySize=auto;html=1;entryX=0;entryY=0.5;entryDx=0;entryDy=0;startArrow=none;startFill=0;endArrow=classic;endFill=1;fontSize=14;" edge="1" parent="1" source="5zgLWV9aw60n4V1XCEfO-21" target="5zgLWV9aw60n4V1XCEfO-5">
          <mxGeometry relative="1" as="geometry" />
        </mxCell>
        <mxCell id="5zgLWV9aw60n4V1XCEfO-21" value="&lt;font style=&quot;font-size: 14px&quot;&gt;Audio/Video&lt;/font&gt;" style="shape=tape;whiteSpace=wrap;html=1;align=center;size=0.2;fillColor=#bac8d3;strokeColor=#23445d;" vertex="1" parent="1">
          <mxGeometry x="890" y="675" width="90" height="50" as="geometry" />
        </mxCell>
      </root>
    </mxGraphModel>
  </diagram>
</mxfile>
